<svg width="109" height="139" viewBox="0 0 109 139" fill="none" xmlns="http://www.w3.org/2000/svg">
<path d="M3.22541 139V112.252L54.3146 69.9895C57.7027 67.1809 60.6004 64.5507 63.0078 62.0988C65.4597 59.6023 67.3321 57.0389 68.6249 54.4087C69.9623 51.7784 70.631 48.8584 70.631 45.6486C70.631 42.1267 69.8731 39.1176 68.3574 36.6211C66.8863 34.1246 64.8356 32.2076 62.2053 30.8702C59.5751 29.4882 56.5436 28.7972 53.1109 28.7972C49.6782 28.7972 46.6467 29.4882 44.0165 30.8702C41.4308 32.2522 39.4247 34.2806 37.9981 36.9554C36.5716 39.6302 35.8583 42.8846 35.8583 46.7185H0.550589C0.550589 37.0892 2.71274 28.7972 7.03704 21.8427C11.3613 14.8881 17.4689 9.53846 25.3596 5.7937C33.2503 2.04895 42.5008 0.176567 53.1109 0.176567C64.0777 0.176567 73.5733 1.9375 81.5978 5.45935C89.6669 8.93663 95.8858 13.8405 100.255 20.1709C104.668 26.5013 106.875 33.9239 106.875 42.4388C106.875 47.6993 105.783 52.9375 103.598 58.1534C101.414 63.3247 97.4907 69.0533 91.829 75.3392C86.1673 81.625 78.1205 89.1145 67.6887 97.8077L54.8495 108.507V109.309H108.346V139H3.22541Z" fill="url(#paint0_linear_239_138)"/>
<defs>
<linearGradient id="paint0_linear_239_138" x1="55" y1="-156.5" x2="55" y2="127.5" gradientUnits="userSpaceOnUse">
<stop stop-color="#0573E4"/>
<stop offset="1" stop-color="white" stop-opacity="0"/>
</linearGradient>
</defs>
</svg>
