<svg width="114" height="141" viewBox="0 0 114 141" fill="none" xmlns="http://www.w3.org/2000/svg">
<path d="M56.0555 140.872C45.267 140.872 35.6822 139.022 27.3011 135.322C18.9645 131.577 12.4112 126.428 7.64112 119.875C2.87101 113.322 0.463669 105.788 0.419088 97.2727H37.8666C37.9112 99.903 38.7137 102.266 40.274 104.361C41.8789 106.412 44.0633 108.017 46.8273 109.176C49.5913 110.335 52.7565 110.914 56.3229 110.914C59.7556 110.914 62.7871 110.312 65.4173 109.109C68.0476 107.861 70.0983 106.144 71.5694 103.96C73.0406 101.775 73.7539 99.2788 73.7093 96.4703C73.7539 93.7063 72.9069 91.2544 71.1682 89.1145C69.4742 86.9746 67.0891 85.3029 64.0131 84.0992C60.937 82.8955 57.3929 82.2937 53.3806 82.2937H39.4715V56.6154H53.3806C57.0808 56.6154 60.3352 56.0135 63.1437 54.8099C65.9969 53.6062 68.2036 51.9344 69.7639 49.7946C71.3688 47.6547 72.149 45.2028 72.1044 42.4388C72.149 39.764 71.5026 37.4012 70.1652 35.3505C68.8277 33.2998 66.9554 31.6949 64.548 30.5358C62.1853 29.3767 59.4436 28.7972 56.3229 28.7972C52.9348 28.7972 49.9034 29.399 47.2285 30.6027C44.5983 31.8064 42.5253 33.4781 41.0096 35.618C39.4938 37.7579 38.7137 40.2098 38.6691 42.9738H3.09391C3.13849 34.5927 5.43439 27.1923 9.98159 20.7727C14.5734 14.3531 20.8592 9.31555 28.8391 5.65996C36.819 2.00436 45.9803 0.176567 56.3229 0.176567C66.4427 0.176567 75.3811 1.89291 83.1381 5.32561C90.9396 8.7583 97.0249 13.4838 101.394 19.5022C105.807 25.476 107.992 32.3191 107.947 40.0315C108.036 47.6993 105.406 53.9851 100.056 58.889C94.7513 63.7928 88.0196 66.6906 79.8614 67.5822V68.6521C90.9173 69.8558 99.2316 73.2439 104.804 78.8164C110.377 84.3444 113.118 91.2989 113.029 99.6801C113.074 107.705 110.666 114.815 105.807 121.012C100.993 127.208 94.2832 132.068 85.6791 135.59C77.1197 139.111 67.2451 140.872 56.0555 140.872Z" fill="url(#paint0_linear_239_139)"/>
<defs>
<linearGradient id="paint0_linear_239_139" x1="57" y1="-156.5" x2="57" y2="127.5" gradientUnits="userSpaceOnUse">
<stop stop-color="#0573E4"/>
<stop offset="1" stop-color="white" stop-opacity="0"/>
</linearGradient>
</defs>
</svg>
