<svg width="300" height="197" viewBox="0 0 300 197" fill="none" xmlns="http://www.w3.org/2000/svg">
<path d="M0 20C0 8.95431 8.95431 0 20 0H280C291.046 0 300 8.9543 300 20V197H0V20Z" fill="url(#paint0_linear_217_812)"/>
<g clip-path="url(#clip0_217_812)">
<path d="M150 101.5C154.142 101.5 157.5 104.858 157.5 109C157.5 111.125 156.617 113.04 155.2 114.405L150.425 119H157.5V124H142.5V119.69L151.732 110.803C152.207 110.345 152.5 109.707 152.5 109C152.5 107.62 151.38 106.5 150 106.5C148.62 106.5 147.5 107.62 147.5 109H142.5C142.5 104.858 145.858 101.5 150 101.5ZM165 101.5V111.5H170V101.5H175V124H170V116.5H160V101.5H165ZM130 99C130 105.317 132.928 110.95 137.5 114.615V120.655C130.027 116.333 125 108.255 125 99H130ZM150 74C162.962 74 173.623 83.8675 174.875 96.5H169.845C168.615 86.635 160.2 79 150 79C143.125 79 137.06 82.4675 133.463 87.75H140V92.75H125V77.75H130V84C134.56 77.925 141.823 74 150 74Z" fill="#066BD3"/>
</g>
<defs>
<linearGradient id="paint0_linear_217_812" x1="150" y1="0" x2="150" y2="197" gradientUnits="userSpaceOnUse">
<stop stop-color="#F7F7F7"/>
<stop offset="1" stop-color="#F9F9F9" stop-opacity="0"/>
</linearGradient>
<clipPath id="clip0_217_812">
<rect width="60" height="60" fill="white" transform="translate(120 69)"/>
</clipPath>
</defs>
</svg>
