<?xml version="1.0" encoding="utf-8"?>
<!-- Generator: Adobe Illustrator 24.0.1, SVG Export Plug-In . SVG Version: 6.00 Build 0)  -->
<svg version="1.1" id="Camada_1" xmlns="http://www.w3.org/2000/svg" xmlns:xlink="http://www.w3.org/1999/xlink" x="0px" y="0px"
	 viewBox="0 0 4000 1000" style="enable-background:new 0 0 4000 1000;" xml:space="preserve">
<style type="text/css">
	.st0{fill:none;stroke:#0573E4;stroke-width:31.1581;stroke-linecap:round;stroke-linejoin:bevel;stroke-miterlimit:10;}
	.st1{fill:#0573E4;}
	.st2{fill:none;}
	.st3{fill:#000007;}
</style>
<path class="st0" d="M19.63,390.27v211.69c0,15.46,18.21,28,40.67,28h333.62c22.46,0,40.67-12.53,40.67-28V335.14v-10.69
	c0-5.14-4.03-9.87-10.54-12.38l-158.02-60.92c-24.18-9.32-53.66-9.32-77.84,0L19.63,316.13"/>
<g>
	<path class="st1" d="M103.55,279.07v-50.99c0-3.92,2.45-7.42,6.13-8.77l25.44-9.31c7.44-2.72,15.55,2.26,15.55,9.56v44.72
		L103.55,279.07z"/>
	<path class="st1" d="M147.84,331.44c3.95,21.01,7.91,42.02,11.86,63.03c-0.68,0.26-1.36,0.51-2.04,0.77
		c-1.2-2.87-2.22-5.85-3.64-8.6c-6.41-12.43-12.44-25.12-19.58-37.09c-6.64-11.13-16.19-17.47-29.8-14.83
		c-10.8,2.09-21.93,2.68-32.54,5.44c-9.02,2.35-11,10.56-4.42,16.62c19.23,17.71,25.77,41.72,31.25,66.19
		c7.75,34.61,9.59,69.92,10.86,105.28c0.1,2.69,0.31,5.37,0.49,8.56c87.61,0,174.95,0,263.38,0c-0.69-13.77-0.69-27.34-2.17-40.74
		c-4.33-39.13-8.76-78.26-14.12-117.25c-2.98-21.66-16.08-34.49-37-37.29c-25.47-3.41-51.08-5.71-76.62-8.55
		c-2.55-0.28-5.05-1.02-7.57-1.54C206.72,331.44,177.28,331.44,147.84,331.44z"/>
	<path class="st1" d="M373.65,576.76c0-10.26,0-20.25,0-30.81c-87.9,0-175.4,0-263.42,0c0,10.15,0,20.15,0,30.81
		C197.81,576.76,285.51,576.76,373.65,576.76z"/>
	<path class="st1" d="M373.65,593.83c0-2.64,0-5.21,0-7.93c-87.9,0-175.4,0-263.42,0c0,2.61,0,5.18,0,7.93
		C197.81,593.83,285.51,593.83,373.65,593.83z"/>
	<path class="st1" d="M170.73,632.55c6,3.3,12.17,6.27,17.54,9.71c15.76,10.1,24.06,22.22,25.73,36.15
		c1.62,13.41-1.22,26.58-4.13,39.82c-3.98,18.11-6.06,36.33,0.59,54.4c1.57,4.26,4.23,8.55,7.84,12.32
		c6.96,7.28,18.33,7.08,25.66-0.04c7.76-7.55,10.9-16,12.76-24.67c2.52-11.71-0.29-23.37-1.31-35.04
		c-1.44-16.39-4.02-32.8-3.75-49.18c0.28-17.12,12.97-31.19,35.3-41.82c0.7-0.34,1.44-0.64,2.13-0.99c0.18-0.09,0.22-0.3,0.45-0.64
		C249.89,632.55,210.38,632.55,170.73,632.55z M232.47,770.77c-5.57,0-10.08-4.51-10.08-10.08s4.51-10.08,10.08-10.08
		c5.57,0,10.08,4.51,10.08,10.08S238.04,770.77,232.47,770.77z"/>
</g>
<g>
	<rect x="579.8" y="306.1" class="st2" width="2965.85" height="421.69"/>
	<path class="st3" d="M604.96,595.55V306.09h61.2v119.43h124.23V306.09h61.06v289.45h-61.06V475.98H666.16v119.57H604.96z"/>
	<path class="st3" d="M901.9,595.55V306.09h61.2v119.43h124.23V306.09h61.06v289.45h-61.06V475.98H963.1v119.57H901.9z"/>
	<path class="st3" d="M1310.93,595.55V306.09h103.17c22.52,0,41.17,4.1,55.97,12.3c14.79,8.2,25.86,19.39,33.21,33.57
		c7.35,14.18,11.02,30.13,11.02,47.84c0,17.81-3.7,33.8-11.09,47.98c-7.4,14.18-18.51,25.39-33.36,33.64
		c-14.84,8.25-33.47,12.37-55.9,12.37h-70.95v-37.03H1410c14.23,0,25.77-2.47,34.63-7.42c8.86-4.95,15.36-11.71,19.5-20.28
		c4.15-8.57,6.22-18.33,6.22-29.26c0-10.93-2.07-20.63-6.22-29.12c-4.15-8.48-10.67-15.12-19.58-19.93
		c-8.9-4.81-20.61-7.21-35.12-7.21h-54.84v252H1310.93z"/>
	<path class="st3" d="M1623.13,600.35c-13.76,0-26.2-2.57-37.31-7.7c-11.12-5.13-19.91-12.6-26.36-22.4
		c-6.46-9.8-9.68-21.81-9.68-36.04c0-12.25,2.35-22.33,7.07-30.25c4.71-7.92,11.07-14.18,19.08-18.8
		c8.01-4.62,16.96-8.1,26.85-10.46c9.89-2.35,19.97-4.14,30.25-5.37c13-1.51,23.55-2.76,31.66-3.75c8.1-0.99,13.99-2.61,17.67-4.88
		c3.67-2.26,5.51-5.94,5.51-11.02v-0.99c0-12.34-3.46-21.91-10.39-28.69s-17.22-10.18-30.88-10.18c-14.23,0-25.42,3.13-33.57,9.4
		c-8.15,6.27-13.78,13.21-16.89,20.85l-39.71-9.05c4.71-13.19,11.61-23.86,20.71-32.01c9.09-8.15,19.57-14.08,31.45-17.81
		c11.87-3.72,24.36-5.58,37.45-5.58c8.67,0,17.88,1.01,27.63,3.04c9.75,2.03,18.89,5.72,27.42,11.09
		c8.53,5.37,15.52,13.03,20.99,22.97c5.46,9.94,8.2,22.83,8.2,38.66v144.16H1689v-29.68h-1.7c-2.73,5.47-6.83,10.84-12.3,16.11
		c-5.47,5.28-12.49,9.66-21.06,13.14C1645.37,598.61,1635.1,600.35,1623.13,600.35z M1632.32,566.43c11.68,0,21.69-2.31,30.03-6.92
		c8.34-4.62,14.7-10.67,19.08-18.16c4.38-7.49,6.57-15.52,6.57-24.1v-27.98c-1.51,1.51-4.41,2.9-8.69,4.17
		c-4.29,1.27-9.16,2.36-14.63,3.25c-5.47,0.9-10.79,1.7-15.97,2.4c-5.18,0.71-9.52,1.3-13,1.77c-8.2,1.04-15.67,2.78-22.4,5.23
		c-6.74,2.45-12.11,5.96-16.11,10.53c-4.01,4.57-6.01,10.62-6.01,18.16c0,10.46,3.86,18.35,11.59,23.67
		C1610.51,563.77,1620.35,566.43,1632.32,566.43z"/>
	<path class="st3" d="M1807.86,344.96c-7.35,0-13.64-2.47-18.87-7.42s-7.84-10.86-7.84-17.74c0-6.97,2.61-12.93,7.84-17.88
		s11.52-7.42,18.87-7.42s13.64,2.47,18.87,7.42s7.84,10.91,7.84,17.88c0,6.88-2.61,12.79-7.84,17.74S1815.21,344.96,1807.86,344.96z
		 M1786.52,595.55V378.46h42.26v217.09H1786.52z"/>
	<path class="st3" d="M1927.85,466.65v128.9h-42.26V378.46h40.56v35.33h2.69c4.99-11.5,12.84-20.73,23.53-27.7
		c10.69-6.97,24.19-10.46,40.49-10.46c14.79,0,27.75,3.09,38.87,9.26c11.12,6.17,19.74,15.33,25.86,27.49
		c6.12,12.16,9.19,27.19,9.19,45.09v138.08h-42.26v-133c0-15.74-4.1-28.06-12.3-36.96c-8.2-8.9-19.46-13.36-33.78-13.36
		c-9.8,0-18.49,2.12-26.08,6.36c-7.59,4.24-13.57,10.44-17.95,18.59C1930.04,445.33,1927.85,455.16,1927.85,466.65z"/>
	<path class="st3" d="M2224.65,378.46v33.92h-118.58v-33.92H2224.65z M2137.87,326.45h42.26v205.36c0,8.2,1.22,14.35,3.67,18.44
		c2.45,4.1,5.63,6.88,9.54,8.34c3.91,1.46,8.17,2.19,12.79,2.19c3.39,0,6.36-0.23,8.9-0.71c2.54-0.47,4.52-0.85,5.94-1.13
		l7.63,34.91c-2.45,0.94-5.94,1.91-10.46,2.9s-10.18,1.53-16.96,1.63c-11.12,0.19-21.48-1.79-31.09-5.94
		c-9.61-4.15-17.38-10.55-23.32-19.22c-5.94-8.67-8.9-19.55-8.9-32.65V326.45z"/>
	<path class="st3" d="M2292.63,344.96c-7.35,0-13.64-2.47-18.87-7.42s-7.84-10.86-7.84-17.74c0-6.97,2.61-12.93,7.84-17.88
		s11.52-7.42,18.87-7.42s13.64,2.47,18.87,7.42s7.84,10.91,7.84,17.88c0,6.88-2.61,12.79-7.84,17.74S2299.98,344.96,2292.63,344.96z
		 M2271.29,595.55V378.46h42.26v217.09H2271.29z"/>
	<path class="st3" d="M2412.62,466.65v128.9h-42.26V378.46h40.56v35.33h2.69c4.99-11.5,12.84-20.73,23.53-27.7
		c10.69-6.97,24.19-10.46,40.49-10.46c14.79,0,27.75,3.09,38.87,9.26c11.12,6.17,19.74,15.33,25.86,27.49
		c6.12,12.16,9.19,27.19,9.19,45.09v138.08h-42.26v-133c0-15.74-4.1-28.06-12.3-36.96c-8.2-8.9-19.46-13.36-33.78-13.36
		c-9.8,0-18.49,2.12-26.08,6.36c-7.59,4.24-13.57,10.44-17.95,18.59C2414.81,445.33,2412.62,455.16,2412.62,466.65z"/>
	<path class="st3" d="M2699.11,681.48c-17.24,0-32.06-2.26-44.45-6.78c-12.39-4.52-22.5-10.51-30.32-17.95
		c-7.82-7.44-13.66-15.6-17.53-24.45l36.32-14.98c2.54,4.15,5.96,8.55,10.25,13.21c4.29,4.66,10.13,8.64,17.53,11.94
		c7.4,3.3,16.94,4.95,28.62,4.95c16.02,0,29.26-3.89,39.71-11.66s15.69-20.14,15.69-37.1v-42.68h-2.69
		c-2.54,4.62-6.2,9.75-10.95,15.41c-4.76,5.65-11.29,10.55-19.58,14.7c-8.29,4.15-19.08,6.22-32.37,6.22
		c-17.15,0-32.58-4.03-46.29-12.08c-13.71-8.06-24.55-19.97-32.51-35.76c-7.96-15.78-11.94-35.21-11.94-58.3
		c0-23.08,3.93-42.87,11.8-59.36c7.87-16.49,18.68-29.14,32.44-37.95c13.76-8.81,29.35-13.21,46.78-13.21
		c13.47,0,24.36,2.24,32.65,6.71c8.29,4.48,14.77,9.68,19.43,15.62c4.66,5.94,8.27,11.17,10.81,15.69h3.11v-35.19h41.41v221.9
		c0,18.66-4.33,33.97-13,45.93c-8.67,11.96-20.38,20.82-35.12,26.57C2734.18,678.61,2717.57,681.48,2699.11,681.48z M2698.68,557.25
		c12.16,0,22.45-2.85,30.88-8.55c8.43-5.7,14.84-13.9,19.22-24.59c4.38-10.69,6.57-23.53,6.57-38.51c0-14.6-2.17-27.46-6.5-38.58
		c-4.33-11.12-10.7-19.81-19.08-26.08c-8.39-6.26-18.75-9.4-31.09-9.4c-12.72,0-23.32,3.28-31.8,9.82
		c-8.48,6.55-14.87,15.43-19.15,26.64c-4.29,11.21-6.43,23.74-6.43,37.59c0,14.23,2.17,26.71,6.5,37.45
		c4.33,10.74,10.76,19.13,19.29,25.16C2675.62,554.23,2686.15,557.25,2698.68,557.25z"/>
</g>
<g>
</g>
<g>
</g>
<g>
</g>
<g>
</g>
<g>
</g>
<g>
</g>
</svg>
