<svg width="483" height="483" viewBox="0 0 483 483" fill="none" xmlns="http://www.w3.org/2000/svg">
<path d="M148.899 76.1979V37.9974C148.899 35.0608 150.735 32.4381 153.493 31.4286L172.552 24.4541C178.126 22.4158 184.197 26.1494 184.197 31.6122V65.113L148.899 76.1979Z" fill="black"/>
<path d="M86.0319 159.496V318.065C86.0319 329.648 99.6718 339.037 116.495 339.037H366.399C383.222 339.037 396.862 329.648 396.862 318.065V118.2V110.192C396.862 106.347 393.843 102.797 388.97 100.918L270.606 55.2843C252.493 48.3001 230.415 48.3001 212.303 55.2843L86.0319 103.956" stroke="black" stroke-width="23.3392" stroke-miterlimit="10" stroke-linecap="round" stroke-linejoin="bevel"/>
<path d="M182.072 115.427C185.032 131.163 187.993 146.899 190.959 162.635C190.447 162.829 189.94 163.017 189.428 163.21C188.529 161.061 187.766 158.829 186.704 156.767C181.898 147.455 177.386 137.949 172.04 128.985C167.065 120.648 159.912 115.9 149.715 117.881C141.625 119.45 133.289 119.885 125.338 121.957C118.586 123.715 117.098 129.869 122.025 134.404C136.433 147.667 141.326 165.654 145.431 183.989C151.237 209.911 152.618 236.365 153.565 262.848C153.637 264.862 153.792 266.872 153.932 269.258C219.557 269.258 284.98 269.258 351.223 269.258C350.706 258.945 350.706 248.778 349.6 238.742C346.359 209.433 343.041 180.12 339.022 150.918C336.791 134.694 326.976 125.087 311.308 122.991C292.229 120.436 273.045 118.716 253.913 116.586C252.005 116.374 250.131 115.823 248.243 115.432C226.179 115.427 204.125 115.427 182.072 115.427Z" fill="black"/>
<path d="M351.218 299.184C351.218 291.5 351.218 284.018 351.218 276.107C285.376 276.107 219.837 276.107 153.903 276.107C153.903 283.709 153.903 291.195 153.903 299.184C219.504 299.184 285.197 299.184 351.218 299.184Z" fill="black"/>
<path d="M351.218 311.975C351.218 309.999 351.218 308.072 351.218 306.039C285.376 306.039 219.837 306.039 153.903 306.039C153.903 307.995 153.903 309.922 153.903 311.975C219.504 311.975 285.197 311.975 351.218 311.975Z" fill="black"/>
<path d="M199.223 340.978C203.72 343.446 208.342 345.673 212.361 348.252C224.165 355.821 230.381 364.896 231.637 375.329C232.849 385.376 230.719 395.238 228.546 405.159C225.566 418.727 224.006 432.372 228.99 445.91C230.164 449.103 232.164 452.315 234.859 455.135C240.075 460.584 248.59 460.439 254.082 455.101C259.897 449.446 262.245 443.118 263.641 436.622C265.524 427.846 263.423 419.118 262.66 410.371C261.583 398.093 259.646 385.801 259.849 373.528C260.062 360.704 269.562 350.165 286.289 342.205C286.815 341.954 287.371 341.722 287.883 341.461C288.018 341.389 288.047 341.239 288.216 340.983C258.516 340.978 228.918 340.978 199.223 340.978ZM245.465 444.509C241.297 444.509 237.916 441.128 237.916 436.96C237.916 432.792 241.297 429.411 245.465 429.411C249.634 429.411 253.015 432.792 253.015 436.96C253.015 441.128 249.639 444.509 245.465 444.509Z" fill="black"/>
</svg>
