<svg width="160" height="160" viewBox="0 0 160 160" fill="none" xmlns="http://www.w3.org/2000/svg">
<rect width="160" height="160" rx="80" fill="#066BD3"/>
<g clip-path="url(#clip0_219_7)">
<path d="M80 112.5C62.0503 112.5 47.5 97.9497 47.5 80C47.5 62.0503 62.0503 47.5 80 47.5C97.9497 47.5 112.5 62.0503 112.5 80C112.5 97.9497 97.9497 112.5 80 112.5ZM75.5215 68.3487C75.3259 68.2182 75.0986 68.1432 74.8637 68.1317C74.6289 68.1202 74.3953 68.1726 74.1878 68.2833C73.9804 68.394 73.8069 68.5589 73.6858 68.7605C73.5646 68.962 73.5004 69.1926 73.5 69.4277V90.5723C73.5004 90.8074 73.5646 91.038 73.6858 91.2395C73.8069 91.4411 73.9804 91.606 74.1878 91.7167C74.3953 91.8274 74.6289 91.8798 74.8637 91.8683C75.0986 91.8568 75.3259 91.7818 75.5215 91.6513L91.3783 81.0823C91.5566 80.9636 91.7028 80.8027 91.8039 80.6139C91.9051 80.4251 91.958 80.2142 91.958 80C91.958 79.7858 91.9051 79.5749 91.8039 79.3861C91.7028 79.1973 91.5566 79.0364 91.3783 78.9177L75.5215 68.3487Z" fill="white"/>
</g>
<defs>
<clipPath id="clip0_219_7">
<rect width="78" height="78" fill="white" transform="translate(41 41)"/>
</clipPath>
</defs>
</svg>
