<svg width="300" height="197" viewBox="0 0 300 197" fill="none" xmlns="http://www.w3.org/2000/svg">
<path d="M0 20C0 8.95431 8.95431 0 20 0H280C291.046 0 300 8.9543 300 20V197H0V20Z" fill="url(#paint0_linear_217_811)"/>
<g clip-path="url(#clip0_217_811)">
<path d="M172.5 110.05V118.89C172.5 119.523 172.26 120.132 171.829 120.595C171.397 121.059 170.806 121.341 170.175 121.385C169.082 121.46 168.19 121.5 167.5 121.5C145.408 121.5 127.5 103.593 127.5 81.5C127.5 80.81 127.538 79.9175 127.615 78.825C127.659 78.1936 127.941 77.6025 128.405 77.171C128.868 76.7395 129.477 76.4997 130.11 76.5H138.95C139.26 76.4997 139.559 76.6146 139.789 76.8226C140.019 77.0305 140.164 77.3165 140.195 77.625C140.253 78.2 140.305 78.6575 140.355 79.005C140.852 82.4723 141.87 85.8446 143.375 89.0075C143.613 89.5075 143.458 90.105 143.008 90.425L137.613 94.28C140.911 101.966 147.036 108.091 154.722 111.39L158.572 106.005C158.73 105.785 158.959 105.627 159.221 105.559C159.483 105.491 159.76 105.517 160.005 105.632C163.168 107.135 166.539 108.15 170.005 108.645C170.353 108.695 170.81 108.75 171.38 108.805C171.688 108.837 171.973 108.981 172.181 109.211C172.388 109.441 172.5 109.74 172.5 110.05Z" fill="#066BD3"/>
</g>
<defs>
<linearGradient id="paint0_linear_217_811" x1="150" y1="0" x2="150" y2="197" gradientUnits="userSpaceOnUse">
<stop stop-color="#F7F7F7"/>
<stop offset="1" stop-color="#F9F9F9" stop-opacity="0"/>
</linearGradient>
<clipPath id="clip0_217_811">
<rect width="60" height="60" fill="white" transform="translate(120 69)"/>
</clipPath>
</defs>
</svg>
